# xmcd
#
# Track frame offsets: 
#        150
#        43669
#        59457
#        111282
#        150658
#        162208
#        179552
#        199765
#        217709
#        229653
#        255660
#        284104
#        298879
#        311742
#
# Disc length: 4330 seconds
#
# Revision: 0
# Processed by: cddbd v1.5.2PL0 Copyright (c) Steve Scherf et al.
# Submitted via: ExactAudioCopyFreeDBPlugin 1.0
#
DISCID=d510e80e
DTITLE=Jimi Hendrix - The Many Faces Of Jimi Hendrix CD 2
DYEAR=2017
DGENRE=Blues Rock
TTITLE0=Free Spirit
TTITLE1=Wipe The Sweat
TTITLE2=Red House
TTITLE3=Voices
TTITLE4=Psycho
TTITLE5=Hot Triggers
TTITLE6=Voice In The Wind
TTITLE7=Go-Go Jam
TTITLE8=She's A Fox
TTITLE9=Suspicious
TTITLE10=Soul Floor
TTITLE11=Keep A Knockin'
TTITLE12=Long Tall Sally
TTITLE13=Lucille
EXTD=
EXTT0=
EXTT1=
EXTT2=
EXTT3=
EXTT4=
EXTT5=
EXTT6=
EXTT7=
EXTT8=
EXTT9=
EXTT10=
EXTT11=
EXTT12=
EXTT13=
PLAYORDER=
